<svg xmlns="http://www.w3.org/2000/svg" width="600" height="750" viewBox="0 0 600 750">
  <defs>
    <linearGradient id="bg" x1="0" y1="0" x2="0" y2="1">
      <stop offset="0" stop-color="#f1e8da"/>
      <stop offset="1" stop-color="#dfceb4"/>
    </linearGradient>
    <radialGradient id="spot" cx="50%" cy="40%" r="55%">
      <stop offset="0" stop-color="#ffffff" stop-opacity="0.55"/>
      <stop offset="0.6" stop-color="#ffffff" stop-opacity="0.08"/>
      <stop offset="1" stop-color="#000000" stop-opacity="0.10"/>
    </radialGradient>
    <filter id="soft" x="-50%" y="-50%" width="200%" height="200%">
      <feGaussianBlur stdDeviation="9"/>
    </filter>
    <filter id="grain">
      <feTurbulence type="fractalNoise" baseFrequency="0.9" numOctaves="2" stitchTiles="stitch"/>
      <feColorMatrix type="saturate" values="0"/>
    </filter>
  </defs>
  <rect width="600" height="750" fill="url(#bg)"/>
  <rect width="600" height="750" fill="url(#spot)"/>
  
  <g>
    <ellipse cx="300" cy="500" rx="150" ry="16" fill="rgba(20,16,10,0.12)" filter="url(#soft)"/>
    <path d="M150 310 Q300 520 450 310" fill="none" stroke="#b89b5e" stroke-width="4"/>
    <path d="M150 310 Q300 510 450 310" fill="none" stroke="rgba(255,255,255,0.3)" stroke-width="1"/>
    <g transform="translate(170 380)">
        <path d="M0 -16 L16 0 L0 16 L-16 0 Z" fill="#cdb06a" stroke="#b89b5e" stroke-width="2"/>
        <circle r="4" fill="rgba(255,255,255,0.4)"/>
      </g><g transform="translate(230 428)">
        <path d="M0 -16 L16 0 L0 16 L-16 0 Z" fill="#cdb06a" stroke="#b89b5e" stroke-width="2"/>
        <circle r="4" fill="rgba(255,255,255,0.4)"/>
      </g><g transform="translate(300 448)">
        <path d="M0 -16 L16 0 L0 16 L-16 0 Z" fill="#cdb06a" stroke="#b89b5e" stroke-width="2"/>
        <circle r="4" fill="rgba(255,255,255,0.4)"/>
      </g><g transform="translate(370 428)">
        <path d="M0 -16 L16 0 L0 16 L-16 0 Z" fill="#cdb06a" stroke="#b89b5e" stroke-width="2"/>
        <circle r="4" fill="rgba(255,255,255,0.4)"/>
      </g><g transform="translate(430 380)">
        <path d="M0 -16 L16 0 L0 16 L-16 0 Z" fill="#cdb06a" stroke="#b89b5e" stroke-width="2"/>
        <circle r="4" fill="rgba(255,255,255,0.4)"/>
      </g>
  </g>
  <rect width="600" height="750" filter="url(#grain)" opacity="0.05"/>
  <rect x="22" y="22" width="556" height="706" fill="none" stroke="rgba(20,16,10,0.10)"/>
  <text x="300" y="92" text-anchor="middle" font-family="Inter, Helvetica, sans-serif" font-size="12" letter-spacing="6" fill="rgba(20,16,10,0.45)">CARTIER</text>
  <text x="300" y="650" text-anchor="middle" font-family="Georgia, 'Cormorant Garamond', serif" font-size="31" fill="#1a1816">Love Bracelet</text>
  <text x="300" y="684" text-anchor="middle" font-family="Inter, Helvetica, sans-serif" font-size="9.5" letter-spacing="5" fill="#b89b5e">N° 02 · GENTLE OUTLET</text>
</svg>