<svg xmlns="http://www.w3.org/2000/svg" width="600" height="750" viewBox="0 0 600 750">
  <defs>
    <linearGradient id="bg" x1="0" y1="0" x2="0" y2="1">
      <stop offset="0" stop-color="#f6efe3"/>
      <stop offset="1" stop-color="#e7dac6"/>
    </linearGradient>
    <radialGradient id="spot" cx="50%" cy="40%" r="55%">
      <stop offset="0" stop-color="#ffffff" stop-opacity="0.55"/>
      <stop offset="0.6" stop-color="#ffffff" stop-opacity="0.08"/>
      <stop offset="1" stop-color="#000000" stop-opacity="0.10"/>
    </radialGradient>
    <filter id="soft" x="-50%" y="-50%" width="200%" height="200%">
      <feGaussianBlur stdDeviation="9"/>
    </filter>
    <filter id="grain">
      <feTurbulence type="fractalNoise" baseFrequency="0.9" numOctaves="2" stitchTiles="stitch"/>
      <feColorMatrix type="saturate" values="0"/>
    </filter>
  </defs>
  <rect width="600" height="750" fill="url(#bg)"/>
  <rect width="600" height="750" fill="url(#spot)"/>
  
  <g>
    <ellipse cx="300" cy="510" rx="150" ry="20" fill="rgba(20,16,10,0.18)" filter="url(#soft)"/>
    <path d="M196 360 q104 -96 208 0 v118 a14 14 0 0 1 -14 14 H210 a14 14 0 0 1 -14 -14 Z" fill="#8fb3c9" opacity="0.92"/>
    <path d="M196 360 q104 -96 208 0" fill="none" stroke="rgba(255,255,255,0.18)" stroke-width="2"/>
    <path d="M218 360 v-8 q82 -74 164 0 v8" fill="none" stroke="#8fb3c9" stroke-width="10" stroke-linecap="round" opacity="0.92"/>
    <path d="M222 360 q78 -68 156 0" fill="none" stroke="rgba(0,0,0,0.18)" stroke-width="1"/>
    <rect x="276" y="350" width="48" height="40" rx="6" fill="none" stroke="#b89b5e" stroke-width="2.5"/>
    <circle cx="300" cy="370" r="7" fill="none" stroke="#b89b5e" stroke-width="2.5"/>
    <line x1="210" y1="392" x2="390" y2="392" stroke="rgba(0,0,0,0.10)" stroke-width="1"/>
    <line x1="210" y1="470" x2="390" y2="470" stroke="rgba(255,255,255,0.10)" stroke-width="1"/>
  </g>
  <rect width="600" height="750" filter="url(#grain)" opacity="0.05"/>
  <rect x="22" y="22" width="556" height="706" fill="none" stroke="rgba(20,16,10,0.10)"/>
  <text x="300" y="92" text-anchor="middle" font-family="Inter, Helvetica, sans-serif" font-size="12" letter-spacing="6" fill="rgba(20,16,10,0.45)">HERMÈS</text>
  <text x="300" y="650" text-anchor="middle" font-family="Georgia, 'Cormorant Garamond', serif" font-size="31" fill="#1a1816">Mini Kelly II</text>
  <text x="300" y="684" text-anchor="middle" font-family="Inter, Helvetica, sans-serif" font-size="9.5" letter-spacing="5" fill="#b89b5e">N° 02 · GENTLE CORE</text>
</svg>